<svg width="487" height="201" viewBox="0 0 487 201" fill="none"
    xmlns="http://www.w3.org/2000/svg">
    <!-- Main orbital arc (simplified) -->
    <path fill-rule="evenodd" clip-rule="evenodd" d="M290 142c8.5-13.5 14.5-28 17.2-43.6 2.8-15.4 1.8-29.9-1.9-42.9L314 2h25l-34.7 197H280l10-57z
        M440 26.6c13.8 0 23 11 20.7 24.6-2.4 13.6-15.6 24.7-29.4 24.7H331l-4.3 24.6H427c27.6 0 53.9-22.1 58.7-49.3C490.5 24 472 2 444.4 2h-100L340 26.6h100z" stroke="none" fill="#12A7B7" />

    <!-- Main circle (simplified) -->
    <path d="M302.3 98.5c-9.6 54.4-62.1 99.2-117.3 100.2-55.2 1-92.2-42.3-82.6-96.7C112 47.6 164.5 2.7 219.7 1.7c55.2-1 92.2 42.4 82.6 96.8zM127.4 101.5c-7.2 40.8 20.5 73.3 61.9 72.6 41.4-.7 80.8-34.4 88-75.2 7.2-40.8-20.5-73.3-61.9-72.5-41.4.7-80.8 34.3-88 75.1z" stroke="#12A7B7" stroke-width="2" fill="none" />

    <!-- Lines (simplified and more elegant) -->
    <path d="M5 192h146.9M30 158h77.4M55 123h41.1" stroke="#12A7B7" stroke-width="2" stroke-linecap="round" fill="none" />
</svg>
