<svg width="487" height="201" viewBox="0 0 487 201" fill="none" xmlns="http://www.w3.org/2000/svg">
<path fill-rule="evenodd" clip-rule="evenodd" d="M290.112 141.613C298.522 128.402 304.493 113.765 307.201 98.4048C309.909 83.0449 309.08 68.5266 305.291 55.5279L314.73 2H339.73L305 198.962H280L290.112 141.613ZM440.024 26.6202C453.831 26.6202 463.08 37.643 460.682 51.2404C458.285 64.8377 445.148 75.8606 431.341 75.8606H331.341L327 100.481H427C454.614 100.481 480.887 78.4351 485.682 51.2404C490.478 24.0457 471.979 2 444.365 2H344.365L340.024 26.6202H440.024Z" fill="#12A7B7"/>
<path d="M302.334 98.4808C292.744 152.87 240.205 197.743 184.985 198.707C129.765 199.671 92.7745 156.361 102.365 101.971C111.955 47.5818 164.494 2.70911 219.714 1.74524C274.934 0.781368 311.925 44.0913 302.334 98.4808ZM127.361 101.535C120.168 142.327 147.911 174.81 189.326 174.087C230.741 173.364 270.145 139.709 277.338 98.9171C284.531 58.125 256.788 25.6425 215.373 26.3654C173.958 27.0883 134.554 60.7429 127.361 101.535Z" fill="#D9D9D9"/>
<path fill-rule="evenodd" clip-rule="evenodd" d="M131.242 189L5 189C2.23858 189 0 191.239 0 194C0 196.761 2.23858 199 5 199H151.884C144.386 196.545 137.47 193.17 131.242 189Z" fill="#D9D9D9"/>
<path fill-rule="evenodd" clip-rule="evenodd" d="M102.36 154L30 154C27.2386 154 25 156.239 25 159C25 161.761 27.2386 164 30 164H107.434C105.524 160.813 103.828 157.474 102.36 154Z" fill="#D9D9D9"/>
<path fill-rule="evenodd" clip-rule="evenodd" d="M95.6478 119L55 119C52.2386 119 50 121.239 50 124C50 126.761 52.2386 129 55 129H96.0864C95.7663 125.731 95.6177 122.395 95.6478 119Z" fill="#D9D9D9"/>
</svg>
